<svg width="24" height="24" viewBox="0 0 24 24" fill="none" xmlns="http://www.w3.org/2000/svg">
<path fill-rule="evenodd" clip-rule="evenodd" d="M15.2778 3.38424C13.2821 2.21818 10.8173 2.19962 8.80431 3.33549C8.56381 3.4712 8.25884 3.38625 8.12313 3.14575C7.98743 2.90525 8.07238 2.60028 8.31288 2.46458C10.6356 1.15396 13.4796 1.17537 15.7823 2.52082C18.085 3.86627 19.5 6.33333 19.4986 9.00029L18.9986 9.00004H19.4986V9.00029V13C19.4986 13.2762 19.2747 13.5 18.9986 13.5C18.7225 13.5 18.4986 13.2762 18.4986 13V9.00004L18.4986 8.99978C18.4998 6.68842 17.2734 4.55029 15.2778 3.38424ZM6.00937 5.33575C6.25474 5.46243 6.35096 5.76403 6.22429 6.00941C5.74707 6.93375 5.49869 7.95914 5.5 8.99941L5.5 9.00004L5.5 14C5.5 14.9794 5.09777 15.8648 4.44949 16.5H17C17.2761 16.5 17.5 16.7239 17.5 17C17.5 17.2762 17.2761 17.5 17 17.5H2C1.72386 17.5 1.5 17.2762 1.5 17C1.5 16.7239 1.72386 16.5 2 16.5C3.38071 16.5 4.5 15.3807 4.5 14V9.00028M10.0191 20.5675C10.258 20.429 10.5639 20.5103 10.7025 20.7492C10.9708 21.2118 11.4652 21.4965 12 21.4965C12.5348 21.4965 13.0292 21.2118 13.2975 20.7492C13.4361 20.5103 13.742 20.429 13.9809 20.5675C14.2197 20.7061 14.3011 21.0121 14.1625 21.2509C13.7153 22.0219 12.8913 22.4965 12 22.4965C11.1087 22.4965 10.2847 22.0219 9.8375 21.2509C9.69894 21.0121 9.78025 20.7061 10.0191 20.5675Z" fill="#414141"/>
<path fill-rule="evenodd" clip-rule="evenodd" d="M0.646447 0.646447C0.841709 0.451184 1.15829 0.451184 1.35355 0.646447L23.3536 22.6464C23.5488 22.8417 23.5488 23.1583 23.3536 23.3536C23.1583 23.5488 22.8417 23.5488 22.6464 23.3536L0.646447 1.35355C0.451184 1.15829 0.451184 0.841709 0.646447 0.646447Z" fill="#414141"/>
</svg>
