<svg width="85" height="40" viewBox="0 0 85 40" fill="none" xmlns="http://www.w3.org/2000/svg">
<path d="M0.510065 27.7887C0.374048 27.7887 0.251632 27.7394 0.142818 27.6408C0.0476061 27.5423 0 27.4155 0 27.2606V13.5282C0 13.3732 0.0476061 13.2465 0.142818 13.1479C0.251632 13.0493 0.374048 13 0.510065 13H2.71355C2.93118 13 3.0944 13.0634 3.20321 13.1901C3.32563 13.3028 3.40044 13.3944 3.42764 13.4648L7.0185 20.1408L10.6094 13.4648C10.6502 13.3944 10.7182 13.3028 10.8134 13.1901C10.9222 13.0634 11.0922 13 11.3235 13H13.5065C13.6562 13 13.7786 13.0493 13.8738 13.1479C13.9826 13.2465 14.037 13.3732 14.037 13.5282V27.2606C14.037 27.4155 13.9826 27.5423 13.8738 27.6408C13.7786 27.7394 13.6562 27.7887 13.5065 27.7887H11.0786C10.929 27.7887 10.7998 27.7394 10.691 27.6408C10.5958 27.5423 10.5482 27.4155 10.5482 27.2606V19.338L8.24266 23.7535C8.18825 23.8803 8.10664 23.993 7.99782 24.0915C7.88901 24.1901 7.73939 24.2394 7.54897 24.2394H6.48803C6.29761 24.2394 6.14799 24.1901 6.03917 24.0915C5.93036 23.993 5.84195 23.8803 5.77394 23.7535L3.46844 19.338V27.2606C3.46844 27.4155 3.42084 27.5423 3.32563 27.6408C3.23041 27.7394 3.108 27.7887 2.95838 27.7887H0.510065Z" fill="#414141"/>
<path d="M19.8344 28C19.0999 28 18.4402 27.8592 17.8553 27.5775C17.284 27.2817 16.8284 26.8873 16.4883 26.3944C16.1483 25.9014 15.9783 25.3451 15.9783 24.7254C15.9783 23.7254 16.3727 22.9366 17.1616 22.3592C17.9505 21.7676 18.9979 21.3662 20.3036 21.1549L22.854 20.7535V20.4577C22.854 19.9507 22.7519 19.5634 22.5479 19.2958C22.3439 19.0282 21.9698 18.8944 21.4258 18.8944C21.0449 18.8944 20.7321 18.9718 20.4873 19.1268C20.256 19.2817 20.0724 19.493 19.9364 19.7606C19.814 19.9437 19.6439 20.0352 19.4263 20.0352H17.1412C16.9916 20.0352 16.876 19.993 16.7944 19.9085C16.7128 19.8099 16.6788 19.6972 16.6924 19.5704C16.6924 19.3169 16.7808 19.0282 16.9576 18.7042C17.148 18.3662 17.4337 18.0352 17.8145 17.7113C18.1954 17.3873 18.685 17.1197 19.2835 16.9085C19.882 16.6972 20.6029 16.5915 21.4462 16.5915C22.3303 16.5915 23.0852 16.6972 23.7109 16.9085C24.3365 17.1197 24.8398 17.4155 25.2207 17.7958C25.6151 18.1761 25.9075 18.6268 26.098 19.1479C26.2884 19.6549 26.3836 20.2183 26.3836 20.838V27.2606C26.3836 27.4155 26.3292 27.5423 26.2204 27.6408C26.1252 27.7394 26.0096 27.7887 25.8735 27.7887H23.5068C23.3572 27.7887 23.2348 27.7394 23.1396 27.6408C23.0444 27.5423 22.9968 27.4155 22.9968 27.2606V26.5211C22.82 26.7887 22.5819 27.0352 22.2827 27.2606C21.9834 27.4859 21.6298 27.662 21.2217 27.7887C20.8273 27.9296 20.3648 28 19.8344 28ZM20.7933 25.5915C21.1877 25.5915 21.5414 25.507 21.8542 25.338C22.1807 25.1549 22.4323 24.8803 22.6091 24.5141C22.7995 24.1338 22.8948 23.662 22.8948 23.0986V22.8028L21.1605 23.1197C20.5213 23.2324 20.052 23.4085 19.7528 23.6479C19.4671 23.8732 19.3243 24.1408 19.3243 24.4507C19.3243 24.6901 19.3923 24.8944 19.5283 25.0634C19.6643 25.2324 19.8412 25.3662 20.0588 25.4648C20.2764 25.5493 20.5213 25.5915 20.7933 25.5915Z" fill="#414141"/>
<path d="M29.196 27.7887C29.0464 27.7887 28.9239 27.7394 28.8287 27.6408C28.7335 27.5423 28.6859 27.4155 28.6859 27.2606V17.331C28.6859 17.1761 28.7335 17.0493 28.8287 16.9507C28.9239 16.8521 29.0464 16.8028 29.196 16.8028H36.0105C36.1465 16.8028 36.2621 16.8521 36.3573 16.9507C36.4661 17.0493 36.5205 17.1761 36.5205 17.331V19.0423C36.5205 19.1972 36.4661 19.3239 36.3573 19.4225C36.2621 19.5211 36.1465 19.5704 36.0105 19.5704H32.1136V27.2606C32.1136 27.4155 32.0591 27.5423 31.9503 27.6408C31.8551 27.7394 31.7395 27.7887 31.6035 27.7887H29.196Z" fill="#414141"/>
<path d="M41.2332 28C40.4987 28 39.839 27.8592 39.2542 27.5775C38.6829 27.2817 38.2272 26.8873 37.8872 26.3944C37.5471 25.9014 37.3771 25.3451 37.3771 24.7254C37.3771 23.7254 37.7716 22.9366 38.5605 22.3592C39.3494 21.7676 40.3967 21.3662 41.7025 21.1549L44.2528 20.7535V20.4577C44.2528 19.9507 44.1508 19.5634 43.9468 19.2958C43.7427 19.0282 43.3687 18.8944 42.8246 18.8944C42.4438 18.8944 42.1309 18.9718 41.8861 19.1268C41.6549 19.2817 41.4712 19.493 41.3352 19.7606C41.2128 19.9437 41.0428 20.0352 40.8252 20.0352H38.5401C38.3904 20.0352 38.2748 19.993 38.1932 19.9085C38.1116 19.8099 38.0776 19.6972 38.0912 19.5704C38.0912 19.3169 38.1796 19.0282 38.3564 18.7042C38.5469 18.3662 38.8325 18.0352 39.2133 17.7113C39.5942 17.3873 40.0839 17.1197 40.6823 16.9085C41.2808 16.6972 42.0017 16.5915 42.845 16.5915C43.7291 16.5915 44.484 16.6972 45.1097 16.9085C45.7354 17.1197 46.2386 17.4155 46.6195 17.7958C47.0139 18.1761 47.3064 18.6268 47.4968 19.1479C47.6872 19.6549 47.7824 20.2183 47.7824 20.838V27.2606C47.7824 27.4155 47.728 27.5423 47.6192 27.6408C47.524 27.7394 47.4084 27.7887 47.2724 27.7887H44.9057C44.7561 27.7887 44.6336 27.7394 44.5384 27.6408C44.4432 27.5423 44.3956 27.4155 44.3956 27.2606V26.5211C44.2188 26.7887 43.9808 27.0352 43.6815 27.2606C43.3823 27.4859 43.0286 27.662 42.6206 27.7887C42.2261 27.9296 41.7637 28 41.2332 28ZM42.1921 25.5915C42.5866 25.5915 42.9402 25.507 43.2531 25.338C43.5795 25.1549 43.8311 24.8803 44.008 24.5141C44.1984 24.1338 44.2936 23.662 44.2936 23.0986V22.8028L42.5594 23.1197C41.9201 23.2324 41.4508 23.4085 41.1516 23.6479C40.866 23.8732 40.7231 24.1408 40.7231 24.4507C40.7231 24.6901 40.7911 24.8944 40.9272 25.0634C41.0632 25.2324 41.24 25.3662 41.4576 25.4648C41.6753 25.5493 41.9201 25.5915 42.1921 25.5915Z" fill="#414141"/>
<path d="M54.5325 28C53.5804 28 52.7915 27.8944 52.1658 27.6831C51.5537 27.4718 51.0641 27.1972 50.6968 26.8592C50.3296 26.5211 50.0644 26.169 49.9011 25.8028C49.7515 25.4225 49.6563 25.0845 49.6155 24.7887C49.6019 24.6761 49.6359 24.5845 49.7175 24.5141C49.7991 24.4437 49.8875 24.4085 49.9827 24.4085H52.3494C52.4991 24.4085 52.6079 24.4366 52.6759 24.493C52.7575 24.5493 52.8255 24.6268 52.8799 24.7254C53.0023 25.007 53.1996 25.2113 53.4716 25.338C53.7572 25.4648 54.1245 25.5282 54.5733 25.5282C54.8862 25.5282 55.1582 25.4859 55.3894 25.4014C55.6343 25.3169 55.8179 25.1901 55.9403 25.0211C56.0627 24.8521 56.1239 24.6408 56.1239 24.3873C56.1239 24.0352 56.0219 23.7676 55.8179 23.5845C55.6139 23.3873 55.2602 23.2887 54.757 23.2887H53.6144C53.492 23.2887 53.39 23.2465 53.3084 23.162C53.2268 23.0634 53.1859 22.9507 53.1859 22.8239V21.6197C53.1859 21.493 53.2268 21.3873 53.3084 21.3028C53.39 21.2042 53.492 21.1549 53.6144 21.1549H54.7161C55.1378 21.1549 55.4438 21.0775 55.6343 20.9225C55.8247 20.7676 55.9199 20.5282 55.9199 20.2042C55.9199 20.007 55.8723 19.8239 55.7771 19.6549C55.6819 19.4859 55.5322 19.3521 55.3282 19.2535C55.1242 19.1408 54.8454 19.0845 54.4917 19.0845C53.9884 19.0845 53.628 19.162 53.4104 19.3169C53.2064 19.4577 53.0363 19.6831 52.9003 19.993C52.8459 20.0915 52.7779 20.169 52.6963 20.2254C52.6283 20.2817 52.5195 20.3099 52.3698 20.3099H50.0848C49.9759 20.3099 49.8875 20.2746 49.8195 20.2042C49.7515 20.1338 49.7175 20.0423 49.7175 19.9296C49.7583 19.5634 49.8603 19.1901 50.0235 18.8099C50.2004 18.4155 50.4724 18.0493 50.8396 17.7113C51.2069 17.3732 51.6898 17.1056 52.2882 16.9085C52.8867 16.6972 53.6348 16.5915 54.5325 16.5915C55.6887 16.5915 56.6068 16.7394 57.2869 17.0352C57.9806 17.3169 58.477 17.6972 58.7763 18.1761C59.0755 18.6408 59.2251 19.1549 59.2251 19.7183C59.2251 20.1972 59.1299 20.6338 58.9395 21.0282C58.7491 21.4225 58.409 21.7465 57.9194 22C58.5314 22.2394 58.9531 22.6056 59.1843 23.0986C59.4156 23.5915 59.5312 24.1197 59.5312 24.6831C59.5312 25.3592 59.3271 25.9437 58.9191 26.4366C58.5246 26.9296 57.9534 27.3169 57.2053 27.5986C56.4572 27.8662 55.5663 28 54.5325 28Z" fill="#414141"/>
<path d="M61.9513 27.7887C61.8152 27.7887 61.6996 27.7394 61.6044 27.6408C61.5092 27.5423 61.4616 27.4225 61.4616 27.2817V17.331C61.4616 17.1761 61.5092 17.0493 61.6044 16.9507C61.6996 16.8521 61.822 16.8028 61.9717 16.8028H64.3792C64.5152 16.8028 64.6308 16.8521 64.726 16.9507C64.8348 17.0493 64.8892 17.1761 64.8892 17.331V25.0423L63.9711 24.5775L69.0106 17.1408C69.0786 17.0423 69.1602 16.9648 69.2554 16.9085C69.3506 16.838 69.4594 16.8028 69.5818 16.8028H71.7649C71.9009 16.8028 72.0165 16.8521 72.1118 16.9507C72.207 17.0493 72.2546 17.169 72.2546 17.3099V27.2606C72.2546 27.4155 72.207 27.5423 72.1118 27.6408C72.0165 27.7394 71.8941 27.7887 71.7445 27.7887H69.337C69.1874 27.7887 69.065 27.7394 68.9698 27.6408C68.8745 27.5423 68.8269 27.4155 68.8269 27.2606V19.7817L69.7655 19.9718L64.6852 27.4507C64.6308 27.5493 64.556 27.6338 64.4608 27.7042C64.3656 27.7606 64.25 27.7887 64.1139 27.7887H61.9513Z" fill="#414141"/>
<path d="M74.9823 27.7887C74.8327 27.7887 74.7103 27.7394 74.6151 27.6408C74.5199 27.5423 74.4723 27.4155 74.4723 27.2606V17.331C74.4723 17.1761 74.5199 17.0493 74.6151 16.9507C74.7103 16.8521 74.8327 16.8028 74.9823 16.8028H77.3898C77.5258 16.8028 77.6415 16.8521 77.7367 16.9507C77.8455 17.0493 77.8999 17.1761 77.8999 17.331V20.838H81.5724V17.331C81.5724 17.1761 81.62 17.0493 81.7152 16.9507C81.8104 16.8521 81.9328 16.8028 82.0824 16.8028H84.4899C84.6259 16.8028 84.7416 16.8521 84.8368 16.9507C84.9456 17.0493 85 17.1761 85 17.331V27.2606C85 27.4155 84.9456 27.5423 84.8368 27.6408C84.7416 27.7394 84.6259 27.7887 84.4899 27.7887H82.0824C81.9328 27.7887 81.8104 27.7394 81.7152 27.6408C81.62 27.5423 81.5724 27.4155 81.5724 27.2606V23.6056H77.8999V27.2606C77.8999 27.4155 77.8455 27.5423 77.7367 27.6408C77.6415 27.7394 77.5258 27.7887 77.3898 27.7887H74.9823Z" fill="#414141"/>
</svg>
