<svg width="24" height="24" viewBox="0 0 24 24" fill="none" xmlns="http://www.w3.org/2000/svg">
<path fill-rule="evenodd" clip-rule="evenodd" d="M11.3325 1.89779C11.3324 1.89788 11.3327 1.8977 11.3325 1.89779L3.33366 5.89724L3.33255 5.89779C2.82288 6.15105 2.50045 6.67092 2.50005 7.24003V16.7635C2.49608 17.3334 2.81541 17.8563 3.32416 18.1131C3.32387 18.1129 3.32445 18.1132 3.32416 18.1131L11.3237 22.1128C11.7462 22.3242 12.2438 22.3243 12.6663 22.1129L20.6664 18.1128L20.6675 18.1123C21.1773 17.859 21.4997 17.339 21.5 16.7698V7.24029C21.4997 6.67109 21.1773 6.15109 20.6675 5.89779L20.6664 5.89724L12.6675 1.89779C12.6674 1.8977 12.6677 1.89789 12.6675 1.89779C12.2474 1.68923 11.7527 1.68922 11.3325 1.89779ZM10.8875 1.00226C11.5883 0.654031 12.4118 0.654031 13.1125 1.00226L13.1137 1.00281L21.1125 5.00226C21.1124 5.00218 21.1127 5.00234 21.1125 5.00226C21.9618 5.42451 22.4995 6.29126 22.5 7.23976V16.77C22.4995 17.7185 21.9624 18.5852 21.1132 19.0075C21.113 19.0076 21.1134 19.0074 21.1132 19.0075L13.1138 23.0072C13.1138 23.0072 13.1138 23.0071 13.1138 23.0072C12.4097 23.3595 11.5806 23.3595 10.8764 23.0072C10.8764 23.0072 10.8765 23.0073 10.8764 23.0072L2.87644 19.0072L2.87506 19.0065C2.02685 18.5792 1.49413 17.7081 1.50005 16.7584V7.24003C1.50055 6.29157 2.03772 5.42483 2.88695 5.00256C2.88675 5.00266 2.88715 5.00246 2.88695 5.00256L10.8864 1.00281L10.8875 1.00226Z" fill="#414141"/>
<path fill-rule="evenodd" clip-rule="evenodd" d="M1.87284 5.93641C1.99634 5.68943 2.29667 5.58931 2.54366 5.71281L12.0001 10.441L21.4564 5.71281C21.7034 5.58931 22.0038 5.68943 22.1273 5.93641C22.2508 6.1834 22.1507 6.48374 21.9037 6.60724L12.2237 11.4472C12.0829 11.5176 11.9172 11.5176 11.7764 11.4472L2.09645 6.60724C1.84946 6.48374 1.74935 6.1834 1.87284 5.93641Z" fill="#414141"/>
<path fill-rule="evenodd" clip-rule="evenodd" d="M12 10.5C12.2761 10.5 12.5 10.7239 12.5 11V22.76C12.5 23.0361 12.2761 23.26 12 23.26C11.7239 23.26 11.5 23.0361 11.5 22.76V11C11.5 10.7239 11.7239 10.5 12 10.5Z" fill="#414141"/>
<path fill-rule="evenodd" clip-rule="evenodd" d="M6.55277 3.27638C6.67627 3.02939 6.9766 2.92928 7.22359 3.05277L17.2236 8.05277C17.4706 8.17627 17.5707 8.4766 17.4472 8.72359C17.3237 8.97058 17.0234 9.0707 16.7764 8.9472L6.77638 3.9472C6.52939 3.82371 6.42928 3.52337 6.55277 3.27638Z" fill="#414141"/>
</svg>
