<svg width="32" height="32" viewBox="0 0 32 32" fill="none" xmlns="http://www.w3.org/2000/svg">
<path fill-rule="evenodd" clip-rule="evenodd" d="M7.33337 28C7.33337 26.159 8.82576 24.6666 10.6667 24.6666C12.5077 24.6666 14 26.159 14 28C14 29.8409 12.5077 31.3333 10.6667 31.3333C8.82576 31.3333 7.33337 29.8409 7.33337 28ZM10.6667 26C9.56214 26 8.66671 26.8954 8.66671 28C8.66671 29.1045 9.56214 30 10.6667 30C11.7713 30 12.6667 29.1045 12.6667 28C12.6667 26.8954 11.7713 26 10.6667 26Z" fill="white"/>
<path fill-rule="evenodd" clip-rule="evenodd" d="M23.3334 28C23.3334 26.159 24.8258 24.6666 26.6667 24.6666C28.5077 24.6666 30 26.159 30 28C30 29.8409 28.5077 31.3333 26.6667 31.3333C24.8258 31.3333 23.3334 29.8409 23.3334 28ZM26.6667 26C25.5621 26 24.6667 26.8954 24.6667 28C24.6667 29.1045 25.5621 30 26.6667 30C27.7713 30 28.6667 29.1045 28.6667 28C28.6667 26.8954 27.7713 26 26.6667 26Z" fill="white"/>
<path fill-rule="evenodd" clip-rule="evenodd" d="M1.33329 0.666626C0.965103 0.666626 0.666626 0.965103 0.666626 1.33329C0.666626 1.70148 0.965103 1.99996 1.33329 1.99996H6.10731C7.11706 7.72192 8.13773 13.419 8.99904 19.1611C9.2438 20.7928 10.6455 22 12.2955 22H25.8129C27.4018 22 28.7698 20.8784 29.0815 19.3203L31.0004 9.72552C31.2479 8.48794 30.3014 7.33329 29.0393 7.33329H9.54725C9.1433 7.33329 8.77059 7.45198 8.45911 7.65453L7.32315 1.21744C7.26693 0.898864 6.99012 0.666626 6.66663 0.666626H1.33329ZM8.88795 9.43219C8.82749 9.02912 9.13967 8.66663 9.54725 8.66663H29.0393C29.46 8.66663 29.7755 9.05151 29.693 9.46404L27.774 19.0589C27.587 19.9937 26.7662 20.6666 25.8129 20.6666H12.2955C11.3055 20.6666 10.4645 19.9423 10.3176 18.9633L8.88795 9.43219Z" fill="white"/>
</svg>
